<?xml version="1.0" standalone="no"?>
<!DOCTYPE svg PUBLIC "-//W3C//DTD SVG 20010904//EN"
 "http://www.w3.org/TR/2001/REC-SVG-20010904/DTD/svg10.dtd">
<svg version="1.0" xmlns="http://www.w3.org/2000/svg"
 width="260.000000pt" height="260.000000pt" viewBox="0 0 260.000000 260.000000"
 preserveAspectRatio="xMidYMid meet">
<metadata>
Created by potrace 1.14, written by Peter Selinger 2001-2017
</metadata>
<g transform="translate(0.000000,260.000000) scale(0.100000,-0.100000)"
fill="#000000" stroke="none">
<path d="M1927 2314 c-1 -1 -63 -5 -137 -9 -74 -3 -148 -9 -165 -12 -16 -3
-239 -6 -495 -7 l-465 -1 1 -90 c1 -81 10 -276 19 -410 17 -247 21 -526 10
-880 -12 -408 -14 -553 -8 -574 10 -37 63 -44 325 -45 167 -1 250 3 258 10 14
14 14 24 6 159 -15 244 -17 286 -20 423 -6 203 -29 187 276 187 133 0 298 -4
364 -9 85 -6 124 -5 128 3 19 30 27 302 13 410 -14 110 -3 105 -196 97 -558
-21 -537 -23 -567 36 -21 41 -24 151 -5 195 20 49 62 57 261 49 91 -4 179 -9
195 -11 67 -9 226 -19 320 -19 83 -1 100 2 99 14 0 17 -14 127 -19 150 -10 51
-15 107 -17 193 -2 79 -6 102 -21 117 -10 11 -21 21 -25 21 -13 2 -133 5 -135
3z"/>
</g>
</svg>
